<?xml version="1.0" encoding="utf-8"?>
<!-- Generator: Adobe Illustrator 26.5.0, SVG Export Plug-In . SVG Version: 6.00 Build 0)  -->
<svg version="1.1" id="ArtisanDart" xmlns="http://www.w3.org/2000/svg" xmlns:xlink="http://www.w3.org/1999/xlink" x="0px"
	 y="0px" viewBox="0 0 180 104.3" style="enable-background:new 0 0 180 104.3;" xml:space="preserve">
<style type="text/css">
	.st0{fill:#D76127;}
	.st1{fill:#FFFFFF;}
	.st2{fill:#1D1D1B;}
</style>
<path id="association-block" class="st0" d="M75.4,2.6h91.8v11.3H75.4V2.6z"/>
<path id="association" class="st1" d="M81.4,6l-1.7,4.5h0.8l0.4-1.2h1.9l0.4,1.2H84l-1.8-4.6L81.4,6C81.4,5.9,81.4,6,81.4,6z
	 M81.1,8.7l0.5-1.5l0.2-0.6L82,7.2l0.5,1.5H81.1z M91.3,8.2c-0.3-0.1-0.7-0.2-1-0.3c-0.3,0-0.6-0.1-0.9-0.3
	c-0.2-0.1-0.3-0.3-0.3-0.4c0-0.2,0.1-0.4,0.3-0.5c0.2-0.1,0.5-0.2,0.7-0.2c0.3,0,0.5,0,0.8,0.2c0.2,0.2,0.4,0.4,0.5,0.6L92,6.8
	c-0.2-0.3-0.4-0.5-0.8-0.7c-0.3-0.2-0.7-0.2-1.1-0.2c-0.3,0-0.6,0.1-0.9,0.2s-0.5,0.3-0.6,0.5s-0.2,0.5-0.2,0.7s0,0.4,0.2,0.6
	c0.1,0.2,0.3,0.3,0.5,0.4c0.3,0.1,0.7,0.2,1,0.3s0.6,0.1,0.8,0.3c0.2,0.1,0.2,0.2,0.3,0.4c0,0.2-0.1,0.4-0.3,0.5
	c-0.2,0.1-0.5,0.2-0.8,0.2s-0.6,0-0.9-0.2c-0.2-0.1-0.4-0.4-0.6-0.6l-0.5,0.4c0.4,0.7,1.2,1,2,0.9c0.3,0,0.7,0,1-0.2
	c0.3-0.1,0.5-0.3,0.6-0.5c0.2-0.2,0.2-0.5,0.2-0.7s-0.1-0.4-0.2-0.6C91.7,8.4,91.5,8.3,91.3,8.2z M99.5,8.2c-0.3-0.1-0.7-0.2-1-0.3
	c-0.3,0-0.6-0.1-0.9-0.3c-0.2-0.1-0.3-0.3-0.3-0.4c0-0.2,0.1-0.4,0.3-0.5c0.2-0.1,0.5-0.2,0.7-0.2c0.3,0,0.5,0,0.8,0.2
	c0.2,0.2,0.4,0.4,0.5,0.6l0.6-0.5c-0.2-0.3-0.4-0.5-0.8-0.7s-0.7-0.2-1.1-0.2c-0.3,0-0.6,0.1-0.9,0.2s-0.5,0.3-0.6,0.5
	s-0.2,0.5-0.2,0.7s0.1,0.4,0.2,0.6c0.1,0.2,0.3,0.3,0.5,0.4c0.3,0.1,0.7,0.2,1,0.3c0.3,0,0.6,0.1,0.9,0.3c0.1,0.1,0.2,0.2,0.2,0.4
	s-0.1,0.4-0.3,0.5c-0.2,0.1-0.5,0.2-0.8,0.2s-0.6,0-0.9-0.2c-0.2-0.1-0.4-0.4-0.6-0.6l-0.5,0.4c0.4,0.7,1.2,1,2,0.9
	c0.3,0,0.7,0,1-0.2c0.3-0.1,0.5-0.3,0.7-0.5s0.2-0.5,0.2-0.7s-0.1-0.4-0.2-0.6C99.9,8.4,99.7,8.3,99.5,8.2L99.5,8.2z M108,6.1
	c-0.4-0.2-0.7-0.3-1.2-0.3c-0.4,0-0.8,0.1-1.1,0.3c-0.3,0.2-0.6,0.5-0.8,0.8c-0.2,0.4-0.3,0.8-0.3,1.2c0,0.4,0.1,0.9,0.3,1.3
	c0.2,0.3,0.4,0.6,0.8,0.8c0.3,0.2,0.7,0.3,1.1,0.3s0.8-0.1,1.2-0.3c0.3-0.2,0.6-0.5,0.8-0.8c0.2-0.4,0.3-0.8,0.3-1.3
	c0-0.4-0.1-0.9-0.3-1.2C108.6,6.6,108.3,6.3,108,6.1z M107.8,9.5c-0.6,0.6-1.5,0.5-2,0c-0.5-0.8-0.5-1.8,0-2.5l0.1-0.1
	c0.6-0.5,1.4-0.5,1.9,0.1C108.3,7.7,108.3,8.7,107.8,9.5z M116.5,9.7c-0.2,0.2-0.5,0.2-0.7,0.2c-0.4,0-0.8-0.2-1-0.5
	c-0.5-0.8-0.5-1.8,0-2.5c0.2-0.3,0.6-0.5,1-0.4c0.2,0,0.5,0,0.7,0.2c0.2,0.1,0.3,0.4,0.4,0.6l0.7-0.3c-0.1-0.3-0.4-0.6-0.7-0.8
	c-0.7-0.4-1.6-0.4-2.3,0c-0.3,0.2-0.6,0.5-0.8,0.8c-0.2,0.4-0.3,0.8-0.3,1.2s0.1,0.9,0.3,1.3c0.2,0.3,0.4,0.6,0.8,0.8
	c0.3,0.2,0.7,0.3,1.1,0.3s0.8-0.1,1.2-0.3c0.3-0.2,0.6-0.6,0.7-1l-0.7-0.2C116.9,9.3,116.7,9.5,116.5,9.7z M122.4,10.5h0.7V6h-0.7
	V10.5z M129.4,6l-1.7,4.5h0.8l0.4-1.2h1.9l0.5,1.2h0.8l-1.8-4.6L129.4,6L129.4,6z M129,8.7l0.6-1.5l0.2-0.6l0.2,0.7l0.5,1.5L129,8.7
	L129,8.7z M135.4,6v0.6h1.6v3.9h0.8V6.6h1.6L139.3,6H135.4z M144,10.5h0.7V6H144V10.5z M152.9,6.1c-0.7-0.4-1.6-0.4-2.3,0
	c-0.3,0.2-0.6,0.5-0.8,0.8c-0.2,0.4-0.3,0.8-0.3,1.2c0,0.4,0.1,0.9,0.3,1.3c0.2,0.3,0.4,0.6,0.8,0.8c0.7,0.4,1.6,0.4,2.3,0
	c0.3-0.2,0.6-0.5,0.8-0.8c0.2-0.4,0.3-0.8,0.2-1.3c0-0.4-0.1-0.9-0.2-1.2C153.4,6.6,153.2,6.3,152.9,6.1z M152.7,9.5
	c-0.6,0.5-1.5,0.5-2,0c-0.5-0.8-0.5-1.7,0-2.5c0.6-0.5,1.4-0.5,2,0C153.2,7.7,153.2,8.7,152.7,9.5z M161.8,6v3.7l-0.4-0.9L159.6,6
	h-0.9v4.6h0.7V6.8l0.4,0.8l1.8,2.9h0.9V6H161.8z"/>
<path id="lines" class="st2" d="M12.8,99.3h154.3v2H12.8V99.3z"/>
<g id="d_x27_art">
	<path class="st2" d="M39.5,53.4H12.8v38.2h26.7c2,0,3.9-0.7,5.3-2.1c1.4-1.4,2.2-3.3,2.2-5.2V60.8c0-2-0.8-3.9-2.2-5.2
		C43.4,54.1,41.5,53.4,39.5,53.4z M39.9,84.3c0,0.2-0.2,0.3-0.4,0.3H20.1c-0.2,0-0.3-0.2-0.3-0.4V60.7c0-0.2,0.2-0.3,0.4-0.3h19.4
		c0.2,0,0.3,0.2,0.3,0.4C39.9,60.8,39.9,84.3,39.9,84.3z"/>
	<path class="st2" d="M51.8,62.9c1.9-0.3,3.7-1.2,5-2.6c1.3-1.3,2-3,2-4.8v-2.1h-7V62.9z"/>
	<path class="st2" d="M90.3,53.4H70.8c-4,0-7.3,3.3-7.3,7.4v30.8h7V78.8h20.1v12.8h7V60.8c0-2-0.7-3.9-2.2-5.2
		C94.2,54.1,92.3,53.3,90.3,53.4z M90.7,71.7H70.6V60.6c0-0.2,0.2-0.3,0.4-0.3h19.4c0.2,0,0.3,0.2,0.3,0.4
		C90.7,60.7,90.7,71.7,90.7,71.7z"/>
	<path class="st2" d="M128.7,53.4H104v38.2h7.1V78.5h6.4l11,13.1h7.6v-1.8l-9.5-11.3h2.1c4.1,0,7.4-3.3,7.4-7.4V60.8
		C136.1,56.7,132.8,53.4,128.7,53.4L128.7,53.4z M129,71.1C129,71.1,129,71.2,129,71.1C129,71.2,129,71.2,129,71.1
		c0,0.3-0.2,0.4-0.4,0.4h-17.4c-0.2,0-0.3-0.2-0.3-0.4V60.7c0-0.2,0.2-0.3,0.4-0.3h17.4c0.2,0,0.3,0.2,0.3,0.4V71.1z"/>
	<path class="st2" d="M139.1,53.4v7h10.5v31.2h7V60.4h10.5v-7H139.1z"/>
</g>
<g id="l_x27_artisan">
	<path class="st2" d="M42.6,5.6c-2.8,3.3-3.6,8-4.5,12.1c-0.8,4.1-1.3,10.8-5.5,12.8c-4.9,2.4-9.9-1.3-12-5.6
		c-1.9-4-2.7-10,0.1-13.8c2.6-3.6,7.6-4.4,11.3-1.8c0.3,0.2,0.5,0.4,0.7,0.6c0.5,0.5,1,0.8,1.6,1.1c0.8,0.2,1.7,0,1.3-0.9
		c-0.7-2-3.7-3.2-5.4-3.7c-2.2-0.7-4.6-0.8-6.9-0.2C21,7.1,19,8.7,17.8,10.9c-2.6,4.3-2.1,10,0.4,14.3c2.9,5,8.4,8.1,14.2,7.8
		c-0.7,1.2-1.4,2.4-2.3,3.6c-0.5,0.8-0.9,1.7-1.9,1.4c-1.3-0.5-2.5-1.2-3.7-1.9c-1.5-0.9-3.2-1.5-5-1.7c-1.6-0.1-4.3,0.9-4.8,2.7
		c-0.4,1.5,1.4,2.9,2.5,3.7c2.6,1.6,5.7,2,8.5,1.1c1-0.2,2-0.6,3-0.9c0.8-0.3,1.1-0.1,1.9,0.4c2.6,1.6,5,3.4,7.9,4.5
		c3.5,1.3,9.1,1.7,11.3-1.9c0.7-1.1,1.5-3.2,0.6-4.3s-3.5-1.3-4.2,0.2c-0.3,0.5-0.1,1.2,0.4,1.5c0.1,0.1,0.2,0.1,0.3,0.1
		c0.5,0,1.2-0.8,1.4-0.7c0.4,0.2-0.3,1.5-0.5,1.7c-0.6,0.9-1.5,1.6-2.5,1.9C43,45.1,40.1,44,38,43.1c-2.2-0.9-4.4-2.1-6.4-3.5
		c1.7-1.3,3.2-2.9,4.4-4.6c0.6-0.9,1-2.2,1.8-3c1-0.7,2-1.4,3.1-1.9c1.4-0.8,2.6-1.8,3.8-2.9c3.1-3.2,5.7-7,7.5-11.1
		c1.3-2.4,2.1-4.9,2.4-7.6c0.2-1.3-0.1-2.5-0.7-3.7C51.8,0.6,45.2,2.6,42.6,5.6z M20.5,39.6c-1.6-0.7-4.1-3.4-0.8-3.3
		c2.8,0,5.5,1.3,7.8,2.8C25.4,40.4,22.8,40.6,20.5,39.6z M51.4,10.1c-1.1,3.7-2.8,7.2-4.9,10.4c-1.8,2.8-4.2,6.8-7.4,8.2
		c1.2-4.6,1.8-9.3,3.1-13.9c0.9-3.2,2.1-7.9,5.2-9.7c1.5-0.9,3.7-0.6,4.2,1.3C51.8,7.6,51.8,8.9,51.4,10.1z M115.2,26.8
		c0.6-0.3,5.4-3.2,2.2-3.5C116.2,23.2,113.2,26,115.2,26.8z"/>
	<path class="st2" d="M164.5,40.1c-0.9,1.2-2,2.2-3.3,3c-1.1,0.1,2.7-10.5,2-12c-2-4.4-7.6,4.3-8.6,5.7c0.4-1.3,0.5-2.6,0.5-4
		c-0.6-4.5-3.6-0.9-5.1,1.1c-1.8,2.5-3.4,5.4-5.6,7.6c-1.7,1.7-3,2.6-2.8-0.5s5.3-10.1,0.9-11.1c-3.1-0.7-6.3,1.8-8.4,3.9
		c-2.5,2.5-3.1,6.3-5.9,8.5c2.1-4.1-1.5-6.7-1.2-10.6c0.1-1,2.2-3.7,2-4.2c-0.6-1.8-3,0.7-3.7,1.4c-2.1,2.5-3.6,5.5-5.6,8.1
		c-0.8,1-5,7-6.6,6.7s0.1-5.7,0.3-6.4c0.4-1.6,3.5-7.5,0.8-7c-1.2,0.2-3.9,6-4.7,7.1c-0.9,1.3-3.6,5.7-5.7,5.7
		c-2.7,0-0.7-5.7-0.2-7.2c0.8-2.8,1.5-3.4,4.1-4c1.1-0.2,5.1-0.8,4.3-1.7c-0.7-0.8-4.9,0.5-6.1-0.5s-0.3-4.9,0-6.7
		c0.1-0.6,1.2-2.6,0.6-3.3c-1-1.1-1.6,0.1-2.1,1.1c-1.3,2.4-0.2,5.8-1.7,8.3c-1,1.7-6.3,1.8-4.2,3.2c2.1,1.4,4-1.2,1.7,3
		C99,37.4,96,43.4,93,43s1.5-8.1-0.3-10.2c-1.1-1.3-3.7-0.4-4.3-2.3c-0.4-1.3,1-3,1.7-4c-3.5-0.3-4.6,3.6-5.4,6.2
		c-0.9,2.9-2.3,5.6-4.2,8c-1.5,1.8-3.9,4.3-3.8,0.6c0.1-2.9,1.7-5.6,2.5-8.4c0.6-2.2-0.5-3.1-2.9-3.1c-3.7,0-7.8,4.3-9.6,7.2
		c-1,1.6-3.7,6.9-1.2,8.4c3,1.7,8.1-5.2,9.4-6.8c-0.4,2.2-2.1,8,2.3,6.8c3.7-1,6.2-6.7,8.3-9.6c1.3-1.7,4-3.3,5.2-0.3
		c0.8,2-1.4,5.4-1.2,7.6c0.8,7.9,10.2-4.8,11.4-6.9c-0.7,2.8-3,13,3.4,8.7c2.8-2.2,5-4.9,6.6-8c-0.5,1.8-2.1,6.1-1.2,8
		c1.4,2.8,4.8,0.1,6.1-1.4c1.7-1.9,6.5-10.2,9.3-7.7c1.9,1.7,1.1,7-1.1,8.1c-3.6,1.9-0.9-2.9-3.7-2.7c-2.8,0.2-0.8,3.8,0.7,4.3
		c2.7,1,6.5-0.8,8.4-2.6c-0.2,7.1,9.1-2.9,10.3-4.4c-0.5,2.3-2.1,7.2,1.8,6.9c3.6-0.3,6-5.9,7.9-8.5c1.3-1.8,2.8-3.8,2.4-0.2
		c-0.2,0.9-0.4,1.8-0.7,2.7c-0.2,0.9-2.5,8.6,0.6,6.2c0.7-0.6,1-2.7,1.2-3.5c0.7-1.9,1.6-3.6,2.8-5.2c0.7-1,2-3.3,3.3-3.5
		c2.1-0.3,0.9,1.6,0.5,3.3c-0.6,2.1-3.6,9.1,0.5,9c2.9-0.1,5.8-5.1,6.8-7.4C165.8,38.2,165.2,39.1,164.5,40.1L164.5,40.1z
		 M72.7,38.5c-0.7,0.9-3.7,4.4-5.2,3.6c-1.4-0.8,1.6-5.4,2.1-6.1c0.9-1.2,2.8-3.9,4.6-3.4C77,33.4,73.9,37.3,72.7,38.5z M137.6,38.5
		c-0.7,0.9-3.7,4.4-5.2,3.6c-1.4-0.8,1.6-5.4,2.1-6.1c0.9-1.2,2.8-3.9,4.6-3.4C141.9,33.4,138.8,37.3,137.6,38.5L137.6,38.5z
		 M60,11.8c-0.3,0-0.7,0-1,0.1v0.2c-0.3,4.2-1.2,8.3-2.5,12.3c0.1,0.8,0.6,1,1.2,0.3c0.7-0.7,1.4-2.2,2.1-4.7c0.6-2,1-4.2,1.2-6.3
		C60.8,12.4,60.4,11.8,60,11.8z"/>
</g>
</svg>
